# xmcd
#
# Track frame offsets:
#	150
#	13347
#	29697
#	45822
#	65022
#	79497
#	99375
#	120972
#	142572
#	160572
#	175572
#	189747
#	207597
#
# Disc length: 2968 seconds
#
# Revision: 1
# Processed by: cddbd v1.4PL0 Copyright (c) Steve Scherf et al.
# Submitted via: audiograbber 1.80
#
DISCID=a30b960d
DTITLE=Head Over Heels - Deep Greens and Blues
DYEAR=1900
DGENRE=
TTITLE0=You Love It (Don't You)
TTITLE1=59 Swallows
TTITLE2=Showerman
TTITLE3=Melancholy Blue
TTITLE4=Hey You Little One
TTITLE5=Your Big Bright Blues
TTITLE6=Wintercity
TTITLE7=No Cure For The Blues
TTITLE8=That's Why
TTITLE9=I Believe You Believe
TTITLE10=Picture This
TTITLE11=French Tattoo
TTITLE12=Big Bright Cities
EXTD=
EXTT0=
EXTT1=
EXTT2=
EXTT3=
EXTT4=
EXTT5=
EXTT6=
EXTT7=
EXTT8=
EXTT9=
EXTT10=
EXTT11=
EXTT12=
PLAYORDER=
